# xmcd
#
# Track frame offsets:
#	150
#	19513
#	47369
#	70214
#	87468
#	110982
#	132169
#	157624
#	173024
#	193160
#	224296
#	246921
#	264197
#	279081
#
# Disc length: 4004 seconds
#
# Revision: 1
# Processed by: cddbd v1.5.2PL0 Copyright (c) Steve Scherf et al.
# Submitted via: audiograbber 1.83.01
#
DISCID=b80fa20e
DTITLE=Nina Simone - Nina Simone
DYEAR=2008
DGENRE=Blues
TTITLE0=My Baby Just Cares For Me
TTITLE1=Ain't Got No/I Got Life
TTITLE2=To Be Young, Gifted And Black
TTITLE3=Don't Let Me Be Misunderstood
TTITLE4=Ne Me Quitte Pas
TTITLE5=Mississippi Goddamn
TTITLE6=After You've Gone
TTITLE7=I Want A Little Sugar In My Bowl
TTITLE8=You Must Have Another Lover
TTITLE9=The House of The Rising Sun
TTITLE10=I Loves You Porgy
TTITLE11=Sea Line Women
TTITLE12=Saratoga
TTITLE13=When I Was A Young Girl
EXTD=
EXTT0=
EXTT1=
EXTT2=
EXTT3=
EXTT4=
EXTT5=
EXTT6=
EXTT7=
EXTT8=
EXTT9=
EXTT10=
EXTT11=
EXTT12=
EXTT13=
PLAYORDER=
